# xmcd
#
# Track frame offsets: 
#        150
#        11882
#        28297
#        41960
#        57225
#        71295
#        88432
#        106305
#        126660
#        145260
#        163417
#        176182
#        196265
#
# Disc length: 2806 seconds
#
# Revision: 5
# Processed by: cddbd v1.5.2PL0 Copyright (c) Steve Scherf et al.
# Submitted via: ExactAudioCopy v1.3
#
DISCID=ce0af40d
DTITLE=Steve Earle - Essential Steve Earle
DYEAR=1993
DGENRE=Country
TTITLE0=Guitar Town
TTITLE1=Hillbilly Highway
TTITLE2=The Devil's Right Hand
TTITLE3=Goodbye's All We Got Left To Say
TTITLE4=Six Days On The Road
TTITLE5=Someday
TTITLE6=Good Ol' Boy (Gettin' Tough)
TTITLE7=Copperhead Road
TTITLE8=The Rain Came Down
TTITLE9=I Ain't Ever Satisfied
TTITLE10=Nowhere  Road
TTITLE11=The Week Of Living Dangerously
TTITLE12=Continental Trailways Blues
EXTD=
EXTT0=
EXTT1=
EXTT2=
EXTT3=
EXTT4=
EXTT5=
EXTT6=
EXTT7=
EXTT8=
EXTT9=
EXTT10=
EXTT11=
EXTT12=
PLAYORDER=
